<svg width="1636" height="307" viewBox="0 0 1636 307" fill="none" xmlns="http://www.w3.org/2000/svg">
<path d="M1537.28 93.8139V42.8047H1580.55V93.8139H1621.44V129.143H1580.55V241.086C1580.55 252.465 1582.94 260.206 1587.7 264.308C1592.46 268.277 1600.8 270.262 1612.71 270.262C1614.69 270.262 1616.54 270.262 1618.26 270.262C1619.98 270.13 1621.44 269.998 1622.63 269.865V303.607C1620.91 303.871 1618.13 304.136 1614.3 304.401C1610.46 304.798 1606.29 304.996 1601.79 304.996C1584.72 304.996 1571.49 302.879 1562.09 298.645C1552.7 294.411 1546.08 287.861 1542.25 278.995C1538.54 269.998 1536.69 258.552 1536.69 244.658V129.143H1507.71V93.8139H1537.28Z" fill="white"/>
<path d="M1420.98 303.617V18.4023H1465.04V303.617H1420.98Z" fill="white"/>
<path d="M1363.62 93.8242V303.617H1320.35V274.441H1318.36C1316.11 279.866 1312.41 285.092 1307.25 290.12C1302.09 295.149 1295.4 299.184 1287.2 302.228C1279 305.271 1269.21 306.793 1257.83 306.793C1243.54 306.793 1230.9 304.08 1219.92 298.655C1208.93 293.098 1200.33 284.894 1194.11 274.044C1188.03 263.193 1184.98 249.631 1184.98 233.355V93.8242H1229.05V221.248C1229.05 233.421 1231.1 243.015 1235.2 250.028C1239.43 256.908 1244.92 261.738 1251.67 264.517C1258.42 267.295 1265.76 268.685 1273.7 268.685C1282.57 268.685 1290.44 266.898 1297.32 263.326C1304.2 259.621 1309.63 254.196 1313.6 247.05C1317.57 239.905 1319.55 231.106 1319.55 220.653V93.8242H1363.62Z" fill="white"/>
<path d="M1031.56 306.814C1011.18 306.814 994.642 301.124 981.94 289.745C969.237 278.365 962.886 262.884 962.886 243.301C962.886 224.776 969.171 210.022 981.741 199.04C994.444 187.925 1012.84 182.367 1036.92 182.367H1090.11V162.321C1090.11 150.412 1086.67 141.216 1079.79 134.732C1073.04 128.249 1063.51 125.007 1051.21 125.007C1043.27 125.007 1036.46 126.33 1030.77 128.976C1025.08 131.491 1020.64 135.129 1017.47 139.893C1014.29 144.524 1012.44 149.949 1011.91 156.168H970.626C971.156 147.303 973.074 138.9 976.382 130.961C979.69 123.022 984.586 116.075 991.07 110.121C997.686 104.034 1006.02 99.2707 1016.08 95.8304C1026.27 92.3901 1038.31 90.6699 1052.2 90.6699C1067.82 90.6699 1081.71 93.2502 1093.88 98.4106C1106.19 103.571 1115.85 111.312 1122.86 121.633C1130.01 131.954 1133.58 144.987 1133.58 160.733V303.638H1091.7V277.836H1090.11C1087.07 283.261 1082.9 288.157 1077.61 292.524C1072.45 296.89 1066.03 300.397 1058.35 303.043C1050.81 305.557 1041.88 306.814 1031.56 306.814ZM1044.86 273.271C1053.46 273.271 1061.13 271.617 1067.88 268.309C1074.76 265.001 1080.19 260.436 1084.16 254.614C1088.13 248.792 1090.11 242.11 1090.11 234.568V211.345H1044.46C1031.63 211.345 1022.16 214.124 1016.08 219.682C1010.12 225.107 1007.15 232.186 1007.15 240.919C1007.15 251.901 1010.98 260.039 1018.66 265.332C1026.33 270.625 1035.07 273.271 1044.86 273.271Z" fill="white"/>
<path d="M823.156 303.617L752.101 93.8242H798.942L847.172 256.577H848.76L901.159 93.8242H946.214L872.379 303.617H823.156Z" fill="white"/>
<path d="M673.701 303.634V93.8411H717.763V303.634H673.701ZM669.532 42.6334C669.532 35.3558 672.047 29.4015 677.075 24.7703C682.235 20.0068 688.454 17.625 695.732 17.625C703.009 17.625 709.162 20.0068 714.19 24.7703C719.219 29.4015 721.733 35.3558 721.733 42.6334C721.733 49.7787 719.219 55.7331 714.19 60.4966C709.162 65.1278 703.009 67.4434 695.732 67.4434C688.454 67.4434 682.235 65.1278 677.075 60.4966C672.047 55.7331 669.532 49.7787 669.532 42.6334Z" fill="white"/>
<path d="M531.59 32.6738C552.497 32.6738 569.632 36.5111 582.996 44.1856C596.493 51.7279 606.483 61.8503 612.967 74.553C619.583 87.1234 622.891 100.951 622.891 116.035C622.891 130.987 620.311 143.558 615.15 153.746C609.99 163.935 603.572 172.139 595.898 178.358C588.223 184.577 580.681 189.076 573.271 191.854L628.051 303.598H577.439L528.811 199.397H472.642V303.598H427.984V32.6738H531.59ZM472.642 163.67H524.246C541.051 163.67 553.952 159.767 562.95 151.96C572.08 144.021 576.645 132.575 576.645 117.623C576.645 101.612 571.882 89.6374 562.355 81.6983C552.96 73.6268 540.654 69.591 525.437 69.591H472.642V163.67Z" fill="white"/>
<g clip-path="url(#clip0_27520_26604)">
<rect width="304.865" height="304.865" rx="52.765" fill="url(#paint0_radial_27520_26604)"/>
<path d="M185.866 371.339V144.62C185.866 127.615 172.209 113.831 155.363 113.831C138.517 113.831 124.861 127.615 124.861 144.62V371.339C124.861 388.343 138.517 402.128 155.363 402.128V474.902C98.6996 474.902 52.7646 428.535 52.7646 371.339V144.62C52.7647 87.4235 98.6996 41.0566 155.363 41.0566C212.027 41.0566 257.962 87.4234 257.962 144.62V371.339L257.929 374.012C256.525 429.973 211.141 474.902 155.363 474.902V402.128C172.209 402.128 185.866 388.343 185.866 371.339Z" fill="black"/>
<path d="M237.944 319.543C237.944 273.935 200.972 236.963 155.364 236.963C109.756 236.963 72.783 273.935 72.783 319.543C72.783 365.151 109.756 402.124 155.364 402.124V474.907C69.5587 474.907 0 405.348 0 319.543C0 233.738 69.5587 164.18 155.364 164.18C241.169 164.18 310.727 233.738 310.727 319.543C310.727 405.348 241.169 474.907 155.364 474.907V402.124C200.972 402.124 237.944 365.151 237.944 319.543Z" fill="black"/>
<g clip-path="url(#clip1_27520_26604)">
<rect width="304.865" height="304.865" rx="52.765" fill="url(#paint1_radial_27520_26604)"/>
<path d="M185.866 371.324V144.604C185.866 127.6 172.209 113.815 155.364 113.815C138.518 113.815 124.861 127.6 124.861 144.604V371.324C124.861 388.328 138.518 402.113 155.364 402.113V474.887C98.6999 474.887 52.7649 428.52 52.7649 371.324V144.604C52.7649 87.4078 98.6999 41.041 155.364 41.041C212.027 41.041 257.962 87.4078 257.962 144.604V371.324L257.93 373.997C256.525 429.958 211.142 474.887 155.364 474.887V402.113C172.209 402.113 185.866 388.328 185.866 371.324Z" fill="url(#paint2_linear_27520_26604)"/>
<path d="M237.944 319.524C237.944 273.916 200.972 236.943 155.364 236.943C109.756 236.943 72.783 273.916 72.783 319.524C72.783 365.132 109.756 402.105 155.364 402.105V474.887C69.5587 474.887 0 405.329 0 319.524C0 233.719 69.5587 164.16 155.364 164.16C241.169 164.16 310.727 233.719 310.727 319.524C310.727 405.329 241.169 474.887 155.364 474.887V402.105C200.972 402.105 237.944 365.132 237.944 319.524Z" fill="url(#paint3_linear_27520_26604)"/>
</g>
</g>
<defs>
<radialGradient id="paint0_radial_27520_26604" cx="0" cy="0" r="1" gradientTransform="matrix(333.136 318.845 -318.845 797.612 -4.6401e-05 -7.44116)" gradientUnits="userSpaceOnUse">
<stop stop-color="#EAFF00"/>
<stop offset="0.186464" stop-color="#A6FF00"/>
<stop offset="0.673216" stop-color="#D1FF00"/>
<stop offset="1" stop-color="#AAFF00"/>
</radialGradient>
<radialGradient id="paint1_radial_27520_26604" cx="0" cy="0" r="1" gradientTransform="matrix(333.136 318.845 -318.845 797.612 -4.6401e-05 -7.44116)" gradientUnits="userSpaceOnUse">
<stop stop-color="#EAFF00"/>
<stop offset="0.186464" stop-color="#A6FF00"/>
<stop offset="0.673216" stop-color="#D1FF00"/>
<stop offset="1" stop-color="#AAFF00"/>
</radialGradient>
<linearGradient id="paint2_linear_27520_26604" x1="155.364" y1="41.041" x2="155.364" y2="474.887" gradientUnits="userSpaceOnUse">
<stop stop-color="#081C00"/>
<stop offset="1" stop-color="#154B00"/>
</linearGradient>
<linearGradient id="paint3_linear_27520_26604" x1="155.364" y1="164.16" x2="155.364" y2="474.887" gradientUnits="userSpaceOnUse">
<stop stop-color="#081C00"/>
<stop offset="1" stop-color="#154B00"/>
</linearGradient>
<clipPath id="clip0_27520_26604">
<rect width="304.865" height="304.865" rx="52.765" fill="white"/>
</clipPath>
<clipPath id="clip1_27520_26604">
<rect width="304.865" height="304.865" rx="52.765" fill="white"/>
</clipPath>
</defs>
</svg>
